# xmcd
#
# Track frame offsets: 
#        150
#        16849
#        34955
#        52139
#        72478
#        87328
#        101810
#        119782
#        133442
#        154224
#        173947
#        192378
#        209991
#        224552
#
# Disc length: 3279 seconds
#
# Revision: 0
# Processed by: cddbd v1.5.2PL0 Copyright (c) Steve Scherf et al.
# Submitted via: ExactAudioCopy v1.3
#
DISCID=ee0ccd0e
DTITLE=James Dean Hicks - Making My Own Way
DYEAR=2003
DGENRE=Country
TTITLE0=Making My Own Way
TTITLE1=That's Just The Way It Goes
TTITLE2=Feel For Me
TTITLE3=For Love Or Money
TTITLE4=I'm Still Here
TTITLE5=When The Right One Goes Wrong
TTITLE6=It Just Has To Be This Way
TTITLE7=Wreckin' Ball
TTITLE8=I wat To Be The One
TTITLE9=Maybe It Was Me
TTITLE10=What We Cannot Have
TTITLE11=Runaway
TTITLE12=She Must Not Be Coming Back
TTITLE13=Hell Bent Road
EXTD=
EXTT0=
EXTT1=
EXTT2=
EXTT3=
EXTT4=
EXTT5=
EXTT6=
EXTT7=
EXTT8=
EXTT9=
EXTT10=
EXTT11=
EXTT12=
EXTT13=
PLAYORDER=
